%TF.GenerationSoftware,KiCad,Pcbnew,7.0.10*%
%TF.CreationDate,2024-09-02T03:13:41+05:30*%
%TF.ProjectId,Ki-demo,4b692d64-656d-46f2-9e6b-696361645f70,rev?*%
%TF.SameCoordinates,Original*%
%TF.FileFunction,Drillmap*%
%TF.FilePolarity,Positive*%
%FSLAX45Y45*%
G04 Gerber Fmt 4.5, Leading zero omitted, Abs format (unit mm)*
G04 Created by KiCad (PCBNEW 7.0.10) date 2024-09-02 03:13:41*
%MOMM*%
%LPD*%
G01*
G04 APERTURE LIST*
%ADD10C,0.100000*%
%ADD11C,0.200000*%
G04 APERTURE END LIST*
D10*
X9249722Y-4216400D02*
G75*
G03*
X9089078Y-4216400I-80322J0D01*
G01*
X9089078Y-4216400D02*
G75*
G03*
X9249722Y-4216400I80322J0D01*
G01*
X10474776Y-5410200D02*
G75*
G03*
X7813224Y-5410200I-1330776J0D01*
G01*
X7813224Y-5410200D02*
G75*
G03*
X10474776Y-5410200I1330776J0D01*
G01*
D11*
X8069001Y-7057460D02*
X8069001Y-6857460D01*
X8069001Y-6857460D02*
X8116620Y-6857460D01*
X8116620Y-6857460D02*
X8145191Y-6866983D01*
X8145191Y-6866983D02*
X8164239Y-6886031D01*
X8164239Y-6886031D02*
X8173763Y-6905079D01*
X8173763Y-6905079D02*
X8183287Y-6943174D01*
X8183287Y-6943174D02*
X8183287Y-6971745D01*
X8183287Y-6971745D02*
X8173763Y-7009840D01*
X8173763Y-7009840D02*
X8164239Y-7028888D01*
X8164239Y-7028888D02*
X8145191Y-7047936D01*
X8145191Y-7047936D02*
X8116620Y-7057460D01*
X8116620Y-7057460D02*
X8069001Y-7057460D01*
X8269001Y-7057460D02*
X8269001Y-6924126D01*
X8269001Y-6962221D02*
X8278525Y-6943174D01*
X8278525Y-6943174D02*
X8288049Y-6933650D01*
X8288049Y-6933650D02*
X8307096Y-6924126D01*
X8307096Y-6924126D02*
X8326144Y-6924126D01*
X8392811Y-7057460D02*
X8392811Y-6924126D01*
X8392811Y-6857460D02*
X8383287Y-6866983D01*
X8383287Y-6866983D02*
X8392811Y-6876507D01*
X8392811Y-6876507D02*
X8402334Y-6866983D01*
X8402334Y-6866983D02*
X8392811Y-6857460D01*
X8392811Y-6857460D02*
X8392811Y-6876507D01*
X8516620Y-7057460D02*
X8497572Y-7047936D01*
X8497572Y-7047936D02*
X8488049Y-7028888D01*
X8488049Y-7028888D02*
X8488049Y-6857460D01*
X8621382Y-7057460D02*
X8602334Y-7047936D01*
X8602334Y-7047936D02*
X8592811Y-7028888D01*
X8592811Y-7028888D02*
X8592811Y-6857460D01*
X8849953Y-7057460D02*
X8849953Y-6857460D01*
X8849953Y-6857460D02*
X8916620Y-7000317D01*
X8916620Y-7000317D02*
X8983287Y-6857460D01*
X8983287Y-6857460D02*
X8983287Y-7057460D01*
X9164239Y-7057460D02*
X9164239Y-6952698D01*
X9164239Y-6952698D02*
X9154715Y-6933650D01*
X9154715Y-6933650D02*
X9135668Y-6924126D01*
X9135668Y-6924126D02*
X9097572Y-6924126D01*
X9097572Y-6924126D02*
X9078525Y-6933650D01*
X9164239Y-7047936D02*
X9145192Y-7057460D01*
X9145192Y-7057460D02*
X9097572Y-7057460D01*
X9097572Y-7057460D02*
X9078525Y-7047936D01*
X9078525Y-7047936D02*
X9069001Y-7028888D01*
X9069001Y-7028888D02*
X9069001Y-7009840D01*
X9069001Y-7009840D02*
X9078525Y-6990793D01*
X9078525Y-6990793D02*
X9097572Y-6981269D01*
X9097572Y-6981269D02*
X9145192Y-6981269D01*
X9145192Y-6981269D02*
X9164239Y-6971745D01*
X9259477Y-6924126D02*
X9259477Y-7124126D01*
X9259477Y-6933650D02*
X9278525Y-6924126D01*
X9278525Y-6924126D02*
X9316620Y-6924126D01*
X9316620Y-6924126D02*
X9335668Y-6933650D01*
X9335668Y-6933650D02*
X9345192Y-6943174D01*
X9345192Y-6943174D02*
X9354715Y-6962221D01*
X9354715Y-6962221D02*
X9354715Y-7019364D01*
X9354715Y-7019364D02*
X9345192Y-7038412D01*
X9345192Y-7038412D02*
X9335668Y-7047936D01*
X9335668Y-7047936D02*
X9316620Y-7057460D01*
X9316620Y-7057460D02*
X9278525Y-7057460D01*
X9278525Y-7057460D02*
X9259477Y-7047936D01*
X9440430Y-7038412D02*
X9449953Y-7047936D01*
X9449953Y-7047936D02*
X9440430Y-7057460D01*
X9440430Y-7057460D02*
X9430906Y-7047936D01*
X9430906Y-7047936D02*
X9440430Y-7038412D01*
X9440430Y-7038412D02*
X9440430Y-7057460D01*
X9440430Y-6933650D02*
X9449953Y-6943174D01*
X9449953Y-6943174D02*
X9440430Y-6952698D01*
X9440430Y-6952698D02*
X9430906Y-6943174D01*
X9430906Y-6943174D02*
X9440430Y-6933650D01*
X9440430Y-6933650D02*
X9440430Y-6952698D01*
M02*
